<mxfile host="app.diagrams.net" modified="2023-08-28T12:36:31.769Z" agent="Mozilla/5.0 (Windows NT 10.0; Win64; x64) AppleWebKit/537.36 (KHTML, like Gecko) Chrome/115.0.0.0 Safari/537.36" version="21.6.2" etag="IHfCod9YBXE0CIbhCdT6" type="github">
  <diagram name="Pagina-1" id="6NqYMupr0gcuuThRCfrV">
    <mxGraphModel>
      <root>
        <mxCell id="0" />
        <mxCell id="1" parent="0" />
      </root>
    </mxGraphModel>
  </diagram>
</mxfile>
